<svg xmlns="http://www.w3.org/2000/svg" width="1000" height="999" viewBox="0 0 1000 999" version="1.1"><path d="M 630.500 351.563 C 548.096 362.740, 504.946 413.781, 505.009 500 C 505.054 560.072, 523.603 602.922, 559.899 626.795 C 608.522 658.778, 698.395 656.496, 744.785 622.100 L 753.041 615.978 753.970 618.422 C 754.481 619.766, 756.539 626.071, 758.542 632.433 L 762.186 644 786.093 644 L 810 644 810 563.500 L 810 483 733 483 L 656 483 656 512.500 L 656 542 688.500 542 L 721 542 721 545.804 C 721 580.386, 647.017 592.265, 617.488 562.425 C 593.013 537.692, 593.020 461.343, 617.500 436.429 C 647.753 405.640, 721 419.163, 721 455.538 L 721 459 765.651 459 L 810.302 459 809.700 449.250 C 805.550 382.050, 725.887 338.624, 630.500 351.563 M 190 499.500 L 190 644 262.039 644 C 389.471 644, 423.220 632.356, 450.429 579 C 492.733 496.044, 459.671 389.827, 383.660 364.499 C 357.413 355.752, 347.778 355, 262.039 355 L 190 355 190 499.500 M 283 499.500 L 283 575.217 305.250 574.744 C 358.960 573.601, 371.525 559.232, 371.479 499 C 371.435 439.750, 358.713 425.393, 305.250 424.256 L 283 423.783 283 499.500" stroke="none" fill="#fbfbfb" fill-rule="evenodd"/><path d="M 463 1.140 C 110.394 27.448, -104.037 402.776, 52.019 720.500 C 212.233 1046.689, 659.997 1096.403, 888.653 813.389 C 955.095 731.152, 999 614.974, 999 521.398 C 999 516.844, 999.450 512.840, 1000 512.500 C 1000.587 512.137, 1001 506.303, 1001 498.382 C 1001 489.637, 1000.648 485.100, 1000 485.500 C 999.364 485.893, 999 483.064, 999 477.720 C 999 209.316, 741.499 -19.639, 463 1.140 M 630.500 351.563 C 548.096 362.740, 504.946 413.781, 505.009 500 C 505.054 560.072, 523.603 602.922, 559.899 626.795 C 608.522 658.778, 698.395 656.496, 744.785 622.100 L 753.041 615.978 753.970 618.422 C 754.481 619.766, 756.539 626.071, 758.542 632.433 L 762.186 644 786.093 644 L 810 644 810 563.500 L 810 483 733 483 L 656 483 656 512.500 L 656 542 688.500 542 L 721 542 721 545.804 C 721 580.386, 647.017 592.265, 617.488 562.425 C 593.013 537.692, 593.020 461.343, 617.500 436.429 C 647.753 405.640, 721 419.163, 721 455.538 L 721 459 765.651 459 L 810.302 459 809.700 449.250 C 805.550 382.050, 725.887 338.624, 630.500 351.563 M 190 499.500 L 190 644 262.039 644 C 389.471 644, 423.220 632.356, 450.429 579 C 492.733 496.044, 459.671 389.827, 383.660 364.499 C 357.413 355.752, 347.778 355, 262.039 355 L 190 355 190 499.500 M 283 499.500 L 283 575.217 305.250 574.744 C 358.960 573.601, 371.525 559.232, 371.479 499 C 371.435 439.750, 358.713 425.393, 305.250 424.256 L 283 423.783 283 499.500 M 0.395 499.500 C 0.396 507.200, 0.553 510.218, 0.743 506.206 C 0.934 502.195, 0.932 495.895, 0.741 492.206 C 0.549 488.518, 0.393 491.800, 0.395 499.500" stroke="none" fill="#ec3c3c" fill-rule="evenodd"/></svg>